<svg xmlns="http://www.w3.org/2000/svg" xmlns:xlink="http://www.w3.org/1999/xlink" width="147" zoomAndPan="magnify" viewBox="0 0 110.25 66.749998" height="89" preserveAspectRatio="xMidYMid meet" version="1.0"><defs><g/><clipPath id="b76e590afd"><path d="M 0 0.101562 L 109.503906 0.101562 L 109.503906 66.398438 L 0 66.398438 Z M 0 0.101562 " clip-rule="nonzero"/></clipPath><clipPath id="97b25dc4ba"><path d="M 65.421875 17.792969 L 99.855469 17.792969 L 99.855469 52.226562 L 65.421875 52.226562 Z M 65.421875 17.792969 " clip-rule="nonzero"/></clipPath><clipPath id="a84a4c75ee"><path d="M 10.21875 17.792969 L 44.652344 17.792969 L 44.652344 52.226562 L 10.21875 52.226562 Z M 10.21875 17.792969 " clip-rule="nonzero"/></clipPath><clipPath id="f12108cd27"><path d="M 37.976562 17.792969 L 72.414062 17.792969 L 72.414062 52.226562 L 37.976562 52.226562 Z M 37.976562 17.792969 " clip-rule="nonzero"/></clipPath><clipPath id="da6baa5980"><path d="M 95.253906 47.625 L 99.882812 47.625 L 99.882812 52.253906 L 95.253906 52.253906 Z M 95.253906 47.625 " clip-rule="nonzero"/></clipPath></defs><g clip-path="url(#b76e590afd)"><path fill="#ffffff" d="M 0 0.101562 L 109.503906 0.101562 L 109.503906 66.398438 L 0 66.398438 Z M 0 0.101562 " fill-opacity="1" fill-rule="nonzero"/></g><g clip-path="url(#97b25dc4ba)"><path fill="#707bb8" d="M 99.851562 35.007812 C 99.851562 35.570312 99.824219 36.132812 99.769531 36.695312 C 99.714844 37.253906 99.628906 37.8125 99.519531 38.363281 C 99.410156 38.917969 99.273438 39.464844 99.109375 40.003906 C 98.945312 40.542969 98.757812 41.074219 98.539062 41.59375 C 98.324219 42.117188 98.085938 42.625 97.820312 43.121094 C 97.554688 43.617188 97.261719 44.101562 96.949219 44.570312 C 96.636719 45.039062 96.300781 45.492188 95.945312 45.929688 C 95.585938 46.363281 95.207031 46.78125 94.808594 47.179688 C 94.410156 47.578125 93.992188 47.957031 93.558594 48.3125 C 93.121094 48.671875 92.667969 49.007812 92.199219 49.320312 C 91.730469 49.632812 91.25 49.921875 90.75 50.1875 C 90.253906 50.453125 89.746094 50.695312 89.222656 50.910156 C 88.703125 51.128906 88.171875 51.316406 87.632812 51.480469 C 87.09375 51.644531 86.546875 51.78125 85.996094 51.890625 C 85.441406 52 84.882812 52.082031 84.324219 52.140625 C 83.761719 52.195312 83.199219 52.222656 82.636719 52.222656 C 82.074219 52.222656 81.511719 52.195312 80.949219 52.140625 C 80.386719 52.082031 79.832031 52 79.277344 51.890625 C 78.726562 51.78125 78.179688 51.644531 77.640625 51.480469 C 77.097656 51.316406 76.570312 51.128906 76.046875 50.910156 C 75.527344 50.695312 75.019531 50.453125 74.519531 50.1875 C 74.023438 49.921875 73.539062 49.632812 73.070312 49.320312 C 72.601562 49.007812 72.152344 48.671875 71.714844 48.3125 C 71.277344 47.957031 70.863281 47.578125 70.464844 47.179688 C 70.066406 46.78125 69.6875 46.363281 69.328125 45.925781 C 68.972656 45.492188 68.636719 45.039062 68.324219 44.570312 C 68.007812 44.101562 67.71875 43.617188 67.453125 43.121094 C 67.1875 42.625 66.949219 42.117188 66.730469 41.59375 C 66.515625 41.074219 66.324219 40.542969 66.164062 40.003906 C 66 39.464844 65.863281 38.917969 65.75 38.363281 C 65.640625 37.8125 65.558594 37.253906 65.503906 36.695312 C 65.449219 36.132812 65.421875 35.570312 65.421875 35.007812 C 65.421875 34.441406 65.449219 33.878906 65.503906 33.320312 C 65.558594 32.757812 65.640625 32.199219 65.75 31.648438 C 65.863281 31.09375 66 30.546875 66.164062 30.007812 C 66.324219 29.46875 66.515625 28.941406 66.730469 28.417969 C 66.949219 27.898438 67.1875 27.386719 67.453125 26.890625 C 67.71875 26.394531 68.007812 25.910156 68.324219 25.441406 C 68.636719 24.972656 68.972656 24.519531 69.328125 24.085938 C 69.6875 23.648438 70.066406 23.230469 70.464844 22.832031 C 70.863281 22.433594 71.277344 22.058594 71.714844 21.699219 C 72.152344 21.339844 72.601562 21.007812 73.070312 20.691406 C 73.539062 20.378906 74.023438 20.089844 74.519531 19.824219 C 75.019531 19.558594 75.527344 19.316406 76.046875 19.101562 C 76.570312 18.886719 77.097656 18.695312 77.640625 18.53125 C 78.179688 18.367188 78.726562 18.230469 79.277344 18.121094 C 79.832031 18.011719 80.386719 17.929688 80.949219 17.875 C 81.511719 17.820312 82.074219 17.792969 82.636719 17.792969 C 83.199219 17.792969 83.761719 17.820312 84.324219 17.875 C 84.882812 17.929688 85.441406 18.011719 85.996094 18.121094 C 86.546875 18.230469 87.09375 18.367188 87.632812 18.53125 C 88.171875 18.695312 88.703125 18.886719 89.222656 19.101562 C 89.746094 19.316406 90.253906 19.558594 90.75 19.824219 C 91.25 20.089844 91.730469 20.378906 92.199219 20.691406 C 92.667969 21.007812 93.121094 21.339844 93.558594 21.699219 C 93.992188 22.058594 94.410156 22.433594 94.808594 22.832031 C 95.207031 23.230469 95.585938 23.648438 95.945312 24.085938 C 96.300781 24.519531 96.636719 24.972656 96.949219 25.441406 C 97.261719 25.910156 97.554688 26.394531 97.820312 26.890625 C 98.085938 27.386719 98.324219 27.898438 98.539062 28.417969 C 98.757812 28.941406 98.945312 29.46875 99.109375 30.007812 C 99.273438 30.546875 99.410156 31.09375 99.519531 31.648438 C 99.628906 32.199219 99.714844 32.757812 99.769531 33.320312 C 99.824219 33.878906 99.851562 34.441406 99.851562 35.007812 Z M 99.851562 35.007812 " fill-opacity="1" fill-rule="nonzero"/></g><g clip-path="url(#a84a4c75ee)"><path fill="#3878b6" d="M 44.648438 35.007812 C 44.648438 35.570312 44.621094 36.132812 44.566406 36.695312 C 44.507812 37.253906 44.425781 37.8125 44.316406 38.363281 C 44.207031 38.917969 44.070312 39.464844 43.90625 40.003906 C 43.742188 40.542969 43.554688 41.074219 43.335938 41.59375 C 43.121094 42.117188 42.882812 42.625 42.613281 43.121094 C 42.347656 43.617188 42.058594 44.101562 41.746094 44.570312 C 41.433594 45.039062 41.097656 45.492188 40.742188 45.929688 C 40.382812 46.363281 40.003906 46.78125 39.605469 47.179688 C 39.207031 47.578125 38.789062 47.957031 38.355469 48.3125 C 37.917969 48.671875 37.464844 49.007812 36.996094 49.320312 C 36.527344 49.632812 36.046875 49.921875 35.546875 50.1875 C 35.050781 50.453125 34.542969 50.695312 34.019531 50.910156 C 33.5 51.128906 32.96875 51.316406 32.429688 51.480469 C 31.890625 51.644531 31.34375 51.78125 30.792969 51.890625 C 30.238281 52 29.679688 52.082031 29.121094 52.140625 C 28.558594 52.195312 27.996094 52.222656 27.433594 52.222656 C 26.867188 52.222656 26.304688 52.195312 25.746094 52.140625 C 25.183594 52.082031 24.628906 52 24.074219 51.890625 C 23.519531 51.78125 22.976562 51.644531 22.433594 51.480469 C 21.894531 51.316406 21.367188 51.128906 20.84375 50.910156 C 20.324219 50.695312 19.816406 50.453125 19.316406 50.1875 C 18.820312 49.921875 18.335938 49.632812 17.867188 49.320312 C 17.398438 49.007812 16.949219 48.671875 16.511719 48.3125 C 16.074219 47.957031 15.660156 47.578125 15.261719 47.179688 C 14.859375 46.78125 14.484375 46.363281 14.125 45.925781 C 13.769531 45.492188 13.433594 45.039062 13.117188 44.570312 C 12.804688 44.101562 12.515625 43.617188 12.25 43.121094 C 11.984375 42.625 11.742188 42.117188 11.527344 41.59375 C 11.3125 41.074219 11.121094 40.542969 10.957031 40.003906 C 10.796875 39.464844 10.660156 38.917969 10.546875 38.363281 C 10.4375 37.8125 10.355469 37.253906 10.300781 36.695312 C 10.246094 36.132812 10.21875 35.570312 10.21875 35.007812 C 10.21875 34.441406 10.246094 33.878906 10.300781 33.320312 C 10.355469 32.757812 10.4375 32.199219 10.546875 31.648438 C 10.660156 31.09375 10.796875 30.546875 10.957031 30.007812 C 11.121094 29.46875 11.3125 28.941406 11.527344 28.417969 C 11.742188 27.898438 11.984375 27.386719 12.25 26.890625 C 12.515625 26.394531 12.804688 25.910156 13.117188 25.441406 C 13.433594 24.972656 13.769531 24.519531 14.125 24.085938 C 14.484375 23.648438 14.859375 23.230469 15.261719 22.832031 C 15.660156 22.433594 16.074219 22.058594 16.511719 21.699219 C 16.949219 21.339844 17.398438 21.007812 17.867188 20.691406 C 18.335938 20.378906 18.820312 20.089844 19.316406 19.824219 C 19.816406 19.558594 20.324219 19.316406 20.84375 19.101562 C 21.367188 18.886719 21.894531 18.695312 22.433594 18.53125 C 22.976562 18.367188 23.519531 18.230469 24.074219 18.121094 C 24.628906 18.011719 25.183594 17.929688 25.746094 17.875 C 26.304688 17.820312 26.867188 17.792969 27.433594 17.792969 C 27.996094 17.792969 28.558594 17.820312 29.121094 17.875 C 29.679688 17.929688 30.238281 18.011719 30.792969 18.121094 C 31.34375 18.230469 31.890625 18.367188 32.429688 18.53125 C 32.96875 18.695312 33.5 18.886719 34.019531 19.101562 C 34.542969 19.316406 35.050781 19.558594 35.546875 19.824219 C 36.046875 20.089844 36.527344 20.378906 36.996094 20.691406 C 37.464844 21.007812 37.917969 21.339844 38.355469 21.699219 C 38.789062 22.058594 39.207031 22.433594 39.605469 22.832031 C 40.003906 23.230469 40.382812 23.648438 40.742188 24.085938 C 41.097656 24.519531 41.433594 24.972656 41.746094 25.441406 C 42.058594 25.910156 42.347656 26.394531 42.613281 26.890625 C 42.882812 27.386719 43.121094 27.898438 43.335938 28.417969 C 43.554688 28.941406 43.742188 29.46875 43.90625 30.007812 C 44.070312 30.546875 44.207031 31.09375 44.316406 31.648438 C 44.425781 32.199219 44.507812 32.757812 44.566406 33.320312 C 44.621094 33.878906 44.648438 34.441406 44.648438 35.007812 Z M 44.648438 35.007812 " fill-opacity="1" fill-rule="nonzero"/></g><g clip-path="url(#f12108cd27)"><path fill="#d4dbfe" d="M 72.410156 35.007812 C 72.410156 35.570312 72.378906 36.132812 72.324219 36.695312 C 72.269531 37.253906 72.1875 37.8125 72.078125 38.363281 C 71.96875 38.917969 71.832031 39.464844 71.667969 40.003906 C 71.503906 40.542969 71.3125 41.074219 71.097656 41.59375 C 70.882812 42.117188 70.640625 42.625 70.375 43.121094 C 70.109375 43.617188 69.820312 44.101562 69.507812 44.570312 C 69.195312 45.039062 68.859375 45.492188 68.5 45.929688 C 68.144531 46.363281 67.765625 46.78125 67.367188 47.179688 C 66.96875 47.578125 66.550781 47.957031 66.113281 48.3125 C 65.679688 48.671875 65.226562 49.007812 64.757812 49.320312 C 64.289062 49.632812 63.804688 49.921875 63.308594 50.1875 C 62.8125 50.453125 62.300781 50.695312 61.78125 50.910156 C 61.261719 51.128906 60.730469 51.316406 60.191406 51.480469 C 59.652344 51.644531 59.105469 51.78125 58.550781 51.890625 C 58 52 57.441406 52.082031 56.878906 52.140625 C 56.320312 52.195312 55.757812 52.222656 55.191406 52.222656 C 54.628906 52.222656 54.066406 52.195312 53.503906 52.140625 C 52.945312 52.082031 52.386719 52 51.835938 51.890625 C 51.28125 51.78125 50.734375 51.644531 50.195312 51.480469 C 49.65625 51.316406 49.125 51.128906 48.605469 50.910156 C 48.085938 50.695312 47.574219 50.453125 47.078125 50.1875 C 46.582031 49.921875 46.097656 49.632812 45.628906 49.320312 C 45.160156 49.007812 44.707031 48.671875 44.273438 48.3125 C 43.835938 47.957031 43.417969 47.578125 43.019531 47.179688 C 42.621094 46.78125 42.242188 46.363281 41.886719 45.925781 C 41.527344 45.492188 41.191406 45.039062 40.878906 44.570312 C 40.566406 44.101562 40.277344 43.617188 40.011719 43.121094 C 39.746094 42.625 39.503906 42.117188 39.289062 41.59375 C 39.074219 41.074219 38.882812 40.542969 38.71875 40.003906 C 38.554688 39.464844 38.417969 38.917969 38.308594 38.363281 C 38.199219 37.8125 38.117188 37.253906 38.0625 36.695312 C 38.003906 36.132812 37.976562 35.570312 37.976562 35.007812 C 37.976562 34.441406 38.003906 33.878906 38.0625 33.320312 C 38.117188 32.757812 38.199219 32.199219 38.308594 31.648438 C 38.417969 31.09375 38.554688 30.546875 38.71875 30.007812 C 38.882812 29.46875 39.074219 28.941406 39.289062 28.417969 C 39.503906 27.898438 39.746094 27.386719 40.011719 26.890625 C 40.277344 26.394531 40.566406 25.910156 40.878906 25.441406 C 41.191406 24.972656 41.527344 24.519531 41.886719 24.085938 C 42.242188 23.648438 42.621094 23.230469 43.019531 22.832031 C 43.417969 22.433594 43.835938 22.058594 44.273438 21.699219 C 44.707031 21.339844 45.160156 21.007812 45.628906 20.691406 C 46.097656 20.378906 46.582031 20.089844 47.078125 19.824219 C 47.574219 19.558594 48.085938 19.316406 48.605469 19.101562 C 49.125 18.886719 49.65625 18.695312 50.195312 18.53125 C 50.734375 18.367188 51.28125 18.230469 51.835938 18.121094 C 52.386719 18.011719 52.945312 17.929688 53.503906 17.875 C 54.066406 17.820312 54.628906 17.792969 55.191406 17.792969 C 55.757812 17.792969 56.320312 17.820312 56.878906 17.875 C 57.441406 17.929688 58 18.011719 58.550781 18.121094 C 59.105469 18.230469 59.652344 18.367188 60.191406 18.53125 C 60.730469 18.695312 61.261719 18.886719 61.78125 19.101562 C 62.300781 19.316406 62.8125 19.558594 63.308594 19.824219 C 63.804688 20.089844 64.289062 20.378906 64.757812 20.691406 C 65.226562 21.007812 65.679688 21.339844 66.113281 21.699219 C 66.550781 22.058594 66.96875 22.433594 67.367188 22.832031 C 67.765625 23.230469 68.144531 23.648438 68.5 24.085938 C 68.859375 24.519531 69.195312 24.972656 69.507812 25.441406 C 69.820312 25.910156 70.109375 26.394531 70.375 26.890625 C 70.640625 27.386719 70.882812 27.898438 71.097656 28.417969 C 71.3125 28.941406 71.503906 29.46875 71.667969 30.007812 C 71.832031 30.546875 71.96875 31.09375 72.078125 31.648438 C 72.1875 32.199219 72.269531 32.757812 72.324219 33.320312 C 72.378906 33.878906 72.410156 34.441406 72.410156 35.007812 Z M 72.410156 35.007812 " fill-opacity="1" fill-rule="nonzero"/></g><g clip-path="url(#da6baa5980)"><path fill="#000000" d="M 97.570312 47.625 C 96.289062 47.625 95.253906 48.660156 95.253906 49.9375 C 95.253906 51.21875 96.289062 52.253906 97.570312 52.253906 C 98.847656 52.253906 99.882812 51.21875 99.882812 49.9375 C 99.882812 48.660156 98.847656 47.625 97.570312 47.625 Z M 97.570312 47.625 " fill-opacity="1" fill-rule="nonzero"/></g><g fill="#000000" fill-opacity="1"><g transform="translate(10.864185, 47.648629)"><g><path d="M 10.5625 0 C 8.601562 0 6.894531 -0.535156 5.4375 -1.609375 C 3.988281 -2.679688 2.875 -4.203125 2.09375 -6.171875 C 1.3125 -8.140625 0.921875 -10.484375 0.921875 -13.203125 C 0.921875 -14.296875 1.0625 -15.492188 1.34375 -16.796875 C 1.625 -18.109375 2.046875 -19.359375 2.609375 -20.546875 C 3.171875 -21.734375 3.851562 -22.703125 4.65625 -23.453125 C 5.457031 -24.210938 6.382812 -24.59375 7.4375 -24.59375 C 8.539062 -24.59375 9.441406 -24.203125 10.140625 -23.421875 C 10.835938 -22.640625 11.1875 -21.675781 11.1875 -20.53125 C 11.1875 -19.9375 11.023438 -19.179688 10.703125 -18.265625 C 10.390625 -17.359375 10.070312 -16.382812 9.75 -15.34375 C 9.4375 -14.300781 9.28125 -13.289062 9.28125 -12.3125 C 9.28125 -11.164062 9.445312 -10.363281 9.78125 -9.90625 C 10.125 -9.457031 10.503906 -9.234375 10.921875 -9.234375 C 11.535156 -9.234375 11.96875 -9.535156 12.21875 -10.140625 C 12.476562 -10.753906 12.609375 -11.921875 12.609375 -13.640625 C 12.609375 -14.546875 12.601562 -15.507812 12.59375 -16.53125 C 12.582031 -17.5625 12.664062 -18.535156 12.84375 -19.453125 C 13.03125 -20.367188 13.394531 -21.117188 13.9375 -21.703125 C 14.488281 -22.285156 15.316406 -22.578125 16.421875 -22.578125 C 17.523438 -22.578125 18.363281 -22.296875 18.9375 -21.734375 C 19.507812 -21.171875 19.890625 -20.441406 20.078125 -19.546875 C 20.273438 -18.660156 20.378906 -17.71875 20.390625 -16.71875 C 20.410156 -15.71875 20.421875 -14.765625 20.421875 -13.859375 C 20.421875 -12.023438 20.578125 -10.742188 20.890625 -10.015625 C 21.210938 -9.296875 21.703125 -8.9375 22.359375 -8.9375 C 22.847656 -8.9375 23.226562 -9.210938 23.5 -9.765625 C 23.769531 -10.316406 23.878906 -11.164062 23.828125 -12.3125 C 23.773438 -13.289062 23.585938 -14.257812 23.265625 -15.21875 C 22.953125 -16.1875 22.644531 -17.125 22.34375 -18.03125 C 22.039062 -18.9375 21.890625 -19.769531 21.890625 -20.53125 C 21.890625 -21.726562 22.265625 -22.691406 23.015625 -23.421875 C 23.773438 -24.148438 24.644531 -24.515625 25.625 -24.515625 C 26.769531 -24.515625 27.757812 -24.132812 28.59375 -23.375 C 29.425781 -22.625 30.109375 -21.660156 30.640625 -20.484375 C 31.179688 -19.316406 31.578125 -18.082031 31.828125 -16.78125 C 32.085938 -15.488281 32.21875 -14.296875 32.21875 -13.203125 C 32.21875 -10.484375 31.828125 -8.140625 31.046875 -6.171875 C 30.265625 -4.203125 29.148438 -2.6875 27.703125 -1.625 C 26.265625 -0.5625 24.554688 -0.03125 22.578125 -0.03125 C 21.523438 -0.03125 20.484375 -0.269531 19.453125 -0.75 C 18.429688 -1.226562 17.46875 -1.96875 16.5625 -2.96875 C 15.664062 -1.96875 14.695312 -1.222656 13.65625 -0.734375 C 12.613281 -0.242188 11.582031 0 10.5625 0 Z M 10.5625 0 "/></g></g></g><g fill="#000000" fill-opacity="1"><g transform="translate(70.683979, 47.648629)"><g><path d="M 13.046875 -0.03125 C 10.429688 -0.0625 8.21875 -0.488281 6.40625 -1.3125 C 4.601562 -2.144531 3.238281 -3.484375 2.3125 -5.328125 C 1.382812 -7.171875 0.921875 -9.625 0.921875 -12.6875 C 0.921875 -15.34375 1.351562 -17.632812 2.21875 -19.5625 C 3.082031 -21.5 4.34375 -23 6 -24.0625 C 7.664062 -25.125 9.710938 -25.65625 12.140625 -25.65625 C 14.265625 -25.65625 16.117188 -25.347656 17.703125 -24.734375 C 19.296875 -24.128906 20.550781 -23.257812 21.46875 -22.125 C 22.382812 -20.988281 22.890625 -19.640625 22.984375 -18.078125 C 23.078125 -16.578125 22.820312 -15.273438 22.21875 -14.171875 C 21.625 -13.078125 20.742188 -12.101562 19.578125 -11.25 C 20.429688 -11.101562 21.207031 -10.625 21.90625 -9.8125 C 22.601562 -9.007812 22.953125 -8.035156 22.953125 -6.890625 C 22.953125 -6.109375 22.789062 -5.3125 22.46875 -4.5 C 22.15625 -3.695312 21.625 -2.953125 20.875 -2.265625 C 20.125 -1.585938 19.109375 -1.046875 17.828125 -0.640625 C 16.546875 -0.234375 14.953125 -0.03125 13.046875 -0.03125 Z M 10.515625 -13.703125 C 11.035156 -13.484375 11.648438 -13.378906 12.359375 -13.390625 C 13.066406 -13.410156 13.691406 -13.601562 14.234375 -13.96875 C 14.785156 -14.332031 15.0625 -14.894531 15.0625 -15.65625 C 15.0625 -16.21875 14.894531 -16.664062 14.5625 -17 C 14.238281 -17.34375 13.832031 -17.582031 13.34375 -17.71875 C 12.851562 -17.851562 12.347656 -17.90625 11.828125 -17.875 C 11.316406 -17.851562 10.878906 -17.75 10.515625 -17.5625 C 10.054688 -17.34375 9.742188 -16.960938 9.578125 -16.421875 C 9.421875 -15.878906 9.421875 -15.347656 9.578125 -14.828125 C 9.742188 -14.304688 10.054688 -13.929688 10.515625 -13.703125 Z M 10.515625 -5.125 C 11.035156 -4.9375 11.648438 -4.847656 12.359375 -4.859375 C 13.066406 -4.867188 13.691406 -5.03125 14.234375 -5.34375 C 14.785156 -5.664062 15.0625 -6.15625 15.0625 -6.8125 C 15.0625 -7.300781 14.894531 -7.695312 14.5625 -8 C 14.238281 -8.3125 13.832031 -8.523438 13.34375 -8.640625 C 12.851562 -8.765625 12.347656 -8.804688 11.828125 -8.765625 C 11.316406 -8.734375 10.878906 -8.644531 10.515625 -8.5 C 10.054688 -8.3125 9.742188 -7.984375 9.578125 -7.515625 C 9.421875 -7.046875 9.421875 -6.578125 9.578125 -6.109375 C 9.742188 -5.648438 10.054688 -5.320312 10.515625 -5.125 Z M 10.515625 -5.125 "/></g></g></g><g fill="#000000" fill-opacity="1"><g transform="translate(42.730013, 48.615953)"><g><path d="M 9.421875 0 C 7.710938 0 6.222656 -0.335938 4.953125 -1.015625 C 3.679688 -1.703125 2.691406 -2.601562 1.984375 -3.71875 C 1.273438 -4.832031 0.921875 -6.023438 0.921875 -7.296875 C 0.921875 -8.585938 1.273438 -9.550781 1.984375 -10.1875 C 2.691406 -10.820312 3.457031 -11.140625 4.28125 -11.140625 C 5.144531 -11.140625 5.78125 -10.972656 6.1875 -10.640625 C 6.601562 -10.316406 6.914062 -9.941406 7.125 -9.515625 C 7.332031 -9.085938 7.566406 -8.707031 7.828125 -8.375 C 8.085938 -8.039062 8.484375 -7.875 9.015625 -7.875 C 9.992188 -7.875 10.5625 -8.460938 10.71875 -9.640625 C 10.875 -10.816406 10.941406 -12.515625 10.921875 -14.734375 C 10.921875 -15.566406 10.921875 -16.3125 10.921875 -16.96875 C 9.648438 -17.019531 8.488281 -17.175781 7.4375 -17.4375 C 6.382812 -17.707031 5.550781 -18.140625 4.9375 -18.734375 C 4.332031 -19.335938 4.03125 -20.191406 4.03125 -21.296875 C 4.03125 -22.328125 4.304688 -23.140625 4.859375 -23.734375 C 5.410156 -24.335938 6.160156 -24.769531 7.109375 -25.03125 C 8.066406 -25.300781 9.144531 -25.472656 10.34375 -25.546875 C 11.539062 -25.617188 12.773438 -25.65625 14.046875 -25.65625 C 15.335938 -25.65625 16.570312 -25.617188 17.75 -25.546875 C 18.9375 -25.472656 20 -25.300781 20.9375 -25.03125 C 21.882812 -24.769531 22.632812 -24.335938 23.1875 -23.734375 C 23.738281 -23.140625 24.015625 -22.328125 24.015625 -21.296875 C 24.015625 -19.972656 23.570312 -19.003906 22.6875 -18.390625 C 21.8125 -17.785156 20.6875 -17.375 19.3125 -17.15625 C 19.363281 -16.519531 19.394531 -15.8125 19.40625 -15.03125 C 19.414062 -14.25 19.421875 -13.394531 19.421875 -12.46875 C 19.421875 -8.363281 18.609375 -5.257812 16.984375 -3.15625 C 15.359375 -1.050781 12.835938 0 9.421875 0 Z M 9.421875 0 "/></g></g></g><g fill="#004aad" fill-opacity="1"><g transform="translate(41.463476, 60.37162)"><g><path d="M 2.78125 -4.0625 C 2.800781 -4.0625 2.816406 -4.0625 2.828125 -4.0625 C 2.835938 -4.070312 2.847656 -4.078125 2.859375 -4.078125 C 2.867188 -4.078125 2.878906 -4.078125 2.890625 -4.078125 C 2.898438 -4.078125 2.9375 -4.046875 3 -3.984375 C 3.039062 -3.941406 3.097656 -3.878906 3.171875 -3.796875 C 3.242188 -3.734375 3.285156 -3.6875 3.296875 -3.65625 C 3.304688 -3.625 3.3125 -3.59375 3.3125 -3.5625 C 3.3125 -3.539062 3.3125 -3.519531 3.3125 -3.5 C 3.289062 -3.40625 3.253906 -3.332031 3.203125 -3.28125 C 3.148438 -3.226562 2.984375 -3.101562 2.703125 -2.90625 C 2.679688 -2.882812 2.632812 -2.847656 2.5625 -2.796875 C 2.488281 -2.742188 2.4375 -2.707031 2.40625 -2.6875 C 2.25 -2.570312 2.046875 -2.445312 1.796875 -2.3125 C 1.703125 -2.257812 1.613281 -2.195312 1.53125 -2.125 C 1.457031 -2.0625 1.421875 -2.019531 1.421875 -2 C 1.429688 -1.976562 1.492188 -1.9375 1.609375 -1.875 C 1.734375 -1.800781 2.117188 -1.53125 2.765625 -1.0625 C 3.054688 -0.84375 3.242188 -0.671875 3.328125 -0.546875 L 3.390625 -0.4375 L 3.34375 -0.3125 C 3.300781 -0.226562 3.269531 -0.179688 3.25 -0.171875 C 3.21875 -0.160156 3.1875 -0.125 3.15625 -0.0625 C 3.132812 0 3.113281 0.03125 3.09375 0.03125 C 3.082031 0.03125 3.066406 0.0351562 3.046875 0.046875 C 3.035156 0.0546875 3.023438 0.0625 3.015625 0.0625 C 2.984375 0.0625 2.945312 0.0507812 2.90625 0.03125 C 2.769531 -0.03125 2.394531 -0.289062 1.78125 -0.75 C 1.375 -1.050781 0.984375 -1.3125 0.609375 -1.53125 C 0.503906 -1.59375 0.441406 -1.648438 0.421875 -1.703125 C 0.398438 -1.753906 0.390625 -1.847656 0.390625 -1.984375 C 0.390625 -2.128906 0.398438 -2.234375 0.421875 -2.296875 C 0.441406 -2.359375 0.523438 -2.457031 0.671875 -2.59375 C 0.816406 -2.738281 0.972656 -2.867188 1.140625 -2.984375 C 2.128906 -3.671875 2.675781 -4.03125 2.78125 -4.0625 Z M 2.78125 -4.0625 "/></g></g></g><g fill="#004aad" fill-opacity="1"><g transform="translate(45.171212, 60.37162)"><g/></g></g><g fill="#004aad" fill-opacity="1"><g transform="translate(46.881422, 60.37162)"><g><path d="M 1.421875 -4.71875 C 1.472656 -4.726562 1.566406 -4.734375 1.703125 -4.734375 C 1.742188 -4.734375 1.835938 -4.726562 1.984375 -4.71875 C 2.128906 -4.71875 2.238281 -4.707031 2.3125 -4.6875 C 2.539062 -4.625 2.738281 -4.53125 2.90625 -4.40625 C 3.082031 -4.289062 3.242188 -4.132812 3.390625 -3.9375 C 3.609375 -3.65625 3.71875 -3.226562 3.71875 -2.65625 C 3.71875 -2.644531 3.71875 -2.628906 3.71875 -2.609375 C 3.71875 -2.328125 3.691406 -2.085938 3.640625 -1.890625 C 3.597656 -1.691406 3.515625 -1.5 3.390625 -1.3125 C 3.054688 -0.800781 2.585938 -0.472656 1.984375 -0.328125 C 1.867188 -0.296875 1.765625 -0.269531 1.671875 -0.25 C 1.585938 -0.21875 1.410156 -0.191406 1.140625 -0.171875 C 1.035156 -0.160156 0.945312 -0.15625 0.875 -0.15625 C 0.800781 -0.15625 0.742188 -0.160156 0.703125 -0.171875 C 0.660156 -0.191406 0.601562 -0.253906 0.53125 -0.359375 C 0.445312 -0.484375 0.398438 -0.597656 0.390625 -0.703125 C 0.378906 -0.816406 0.375 -0.988281 0.375 -1.21875 C 0.375 -1.40625 0.378906 -1.640625 0.390625 -1.921875 C 0.398438 -2.742188 0.40625 -3.359375 0.40625 -3.765625 C 0.414062 -4.242188 0.421875 -4.484375 0.421875 -4.484375 C 0.421875 -4.515625 0.445312 -4.53125 0.5 -4.53125 C 0.550781 -4.53125 0.582031 -4.539062 0.59375 -4.5625 C 0.601562 -4.582031 0.640625 -4.59375 0.703125 -4.59375 C 0.734375 -4.59375 0.765625 -4.59375 0.796875 -4.59375 C 0.816406 -4.59375 0.84375 -4.59375 0.875 -4.59375 C 0.957031 -4.59375 1.046875 -4.609375 1.140625 -4.640625 C 1.242188 -4.671875 1.335938 -4.695312 1.421875 -4.71875 Z M 2.15625 -3.71875 C 2.113281 -3.738281 2.007812 -3.75 1.84375 -3.75 C 1.8125 -3.75 1.726562 -3.75 1.59375 -3.75 C 1.457031 -3.75 1.375 -3.726562 1.34375 -3.6875 C 1.332031 -3.675781 1.320312 -3.253906 1.3125 -2.421875 L 1.3125 -1.1875 L 1.390625 -1.203125 C 1.429688 -1.210938 1.53125 -1.242188 1.6875 -1.296875 C 1.894531 -1.367188 2.078125 -1.476562 2.234375 -1.625 C 2.398438 -1.769531 2.515625 -1.9375 2.578125 -2.125 C 2.617188 -2.21875 2.640625 -2.296875 2.640625 -2.359375 C 2.648438 -2.421875 2.65625 -2.535156 2.65625 -2.703125 C 2.65625 -2.859375 2.648438 -2.960938 2.640625 -3.015625 C 2.640625 -3.066406 2.625 -3.132812 2.59375 -3.21875 C 2.550781 -3.300781 2.484375 -3.394531 2.390625 -3.5 C 2.296875 -3.613281 2.21875 -3.6875 2.15625 -3.71875 Z M 2.15625 -3.71875 "/></g></g></g><g fill="#004aad" fill-opacity="1"><g transform="translate(50.84911, 60.37162)"><g><path d="M 2.15625 -4.703125 C 2.414062 -4.734375 2.570312 -4.75 2.625 -4.75 C 2.6875 -4.75 2.722656 -4.75 2.734375 -4.75 C 2.828125 -4.75 2.929688 -4.734375 3.046875 -4.703125 C 3.210938 -4.660156 3.332031 -4.609375 3.40625 -4.546875 C 3.488281 -4.484375 3.53125 -4.425781 3.53125 -4.375 C 3.53125 -4.363281 3.523438 -4.347656 3.515625 -4.328125 C 3.472656 -4.285156 3.429688 -4.203125 3.390625 -4.078125 C 3.378906 -4.046875 3.359375 -4.023438 3.328125 -4.015625 C 3.304688 -4.003906 3.257812 -3.988281 3.1875 -3.96875 C 2.84375 -3.875 2.40625 -3.804688 1.875 -3.765625 C 1.65625 -3.742188 1.535156 -3.722656 1.515625 -3.703125 C 1.492188 -3.679688 1.484375 -3.507812 1.484375 -3.1875 L 1.46875 -2.765625 L 1.578125 -2.796875 C 1.660156 -2.804688 1.757812 -2.820312 1.875 -2.84375 C 2.101562 -2.894531 2.34375 -2.921875 2.59375 -2.921875 C 2.644531 -2.921875 2.757812 -2.914062 2.9375 -2.90625 C 3.113281 -2.90625 3.28125 -2.859375 3.4375 -2.765625 C 3.507812 -2.722656 3.546875 -2.664062 3.546875 -2.59375 C 3.546875 -2.59375 3.539062 -2.566406 3.53125 -2.515625 C 3.53125 -2.472656 3.476562 -2.40625 3.375 -2.3125 C 3.25 -2.207031 3.09375 -2.148438 2.90625 -2.140625 C 2.769531 -2.140625 2.613281 -2.125 2.4375 -2.09375 C 2.226562 -2.0625 2.050781 -2.046875 1.90625 -2.046875 C 1.757812 -2.046875 1.644531 -2.0625 1.5625 -2.09375 C 1.507812 -2.113281 1.472656 -2.125 1.453125 -2.125 C 1.453125 -2.125 1.445312 -2.125 1.4375 -2.125 C 1.4375 -2.101562 1.429688 -1.957031 1.421875 -1.6875 C 1.410156 -1.425781 1.40625 -1.25 1.40625 -1.15625 C 1.40625 -1.09375 1.40625 -1.0625 1.40625 -1.0625 C 1.425781 -1.0625 1.53125 -1.070312 1.71875 -1.09375 C 2 -1.125 2.253906 -1.140625 2.484375 -1.140625 C 2.785156 -1.140625 3.039062 -1.109375 3.25 -1.046875 C 3.40625 -1.003906 3.492188 -0.972656 3.515625 -0.953125 C 3.535156 -0.941406 3.546875 -0.910156 3.546875 -0.859375 C 3.546875 -0.835938 3.546875 -0.820312 3.546875 -0.8125 C 3.546875 -0.757812 3.550781 -0.695312 3.5625 -0.625 C 3.570312 -0.5625 3.578125 -0.519531 3.578125 -0.5 C 3.578125 -0.476562 3.554688 -0.445312 3.515625 -0.40625 C 3.441406 -0.34375 3.351562 -0.300781 3.25 -0.28125 C 3.144531 -0.257812 2.878906 -0.242188 2.453125 -0.234375 C 2.117188 -0.222656 1.90625 -0.207031 1.8125 -0.1875 C 1.78125 -0.195312 1.75 -0.203125 1.71875 -0.203125 C 1.195312 -0.179688 0.90625 -0.164062 0.84375 -0.15625 C 0.789062 -0.15625 0.765625 -0.15625 0.765625 -0.15625 C 0.671875 -0.15625 0.585938 -0.207031 0.515625 -0.3125 L 0.515625 -0.328125 L 0.5 -0.328125 C 0.425781 -0.398438 0.390625 -0.460938 0.390625 -0.515625 C 0.378906 -0.535156 0.375 -0.566406 0.375 -0.609375 C 0.375 -0.703125 0.378906 -0.859375 0.390625 -1.078125 C 0.410156 -1.453125 0.429688 -1.84375 0.453125 -2.25 C 0.472656 -2.664062 0.503906 -3.203125 0.546875 -3.859375 C 0.554688 -3.960938 0.5625 -4.035156 0.5625 -4.078125 C 0.5625 -4.097656 0.554688 -4.117188 0.546875 -4.140625 C 0.546875 -4.160156 0.53125 -4.203125 0.5 -4.265625 C 0.457031 -4.328125 0.4375 -4.378906 0.4375 -4.421875 C 0.4375 -4.429688 0.445312 -4.453125 0.46875 -4.484375 C 0.488281 -4.515625 0.578125 -4.53125 0.734375 -4.53125 C 0.847656 -4.53125 1.046875 -4.554688 1.328125 -4.609375 C 1.546875 -4.640625 1.820312 -4.671875 2.15625 -4.703125 Z M 2.15625 -4.703125 "/></g></g></g><g fill="#004aad" fill-opacity="1"><g transform="translate(54.611575, 60.37162)"><g><path d="M 3.390625 -4.734375 C 3.421875 -4.742188 3.453125 -4.75 3.484375 -4.75 C 3.535156 -4.75 3.601562 -4.726562 3.6875 -4.6875 C 3.769531 -4.644531 3.835938 -4.570312 3.890625 -4.46875 C 3.941406 -4.394531 3.96875 -4.316406 3.96875 -4.234375 C 3.96875 -4.210938 3.960938 -4.171875 3.953125 -4.109375 C 3.941406 -4.054688 3.894531 -3.941406 3.8125 -3.765625 C 3.71875 -3.578125 3.628906 -3.378906 3.546875 -3.171875 C 3.492188 -2.992188 3.429688 -2.816406 3.359375 -2.640625 C 3.285156 -2.472656 3.195312 -2.25 3.09375 -1.96875 C 2.78125 -1.101562 2.582031 -0.597656 2.5 -0.453125 C 2.425781 -0.304688 2.328125 -0.21875 2.203125 -0.1875 C 2.140625 -0.175781 2.070312 -0.171875 2 -0.171875 C 1.894531 -0.171875 1.785156 -0.1875 1.671875 -0.21875 C 1.585938 -0.25 1.53125 -0.273438 1.5 -0.296875 C 1.476562 -0.316406 1.441406 -0.363281 1.390625 -0.4375 C 1.316406 -0.550781 1.257812 -0.679688 1.21875 -0.828125 C 1.175781 -0.960938 1.101562 -1.191406 1 -1.515625 C 0.875 -1.890625 0.769531 -2.210938 0.6875 -2.484375 C 0.59375 -2.816406 0.539062 -2.988281 0.53125 -3 C 0.519531 -3.019531 0.484375 -3.140625 0.421875 -3.359375 C 0.367188 -3.585938 0.316406 -3.773438 0.265625 -3.921875 C 0.222656 -4.078125 0.203125 -4.195312 0.203125 -4.28125 C 0.203125 -4.289062 0.203125 -4.300781 0.203125 -4.3125 C 0.203125 -4.351562 0.210938 -4.390625 0.234375 -4.421875 C 0.253906 -4.453125 0.320312 -4.503906 0.4375 -4.578125 C 0.5 -4.617188 0.539062 -4.640625 0.5625 -4.640625 C 0.582031 -4.640625 0.597656 -4.640625 0.609375 -4.640625 C 0.648438 -4.640625 0.707031 -4.640625 0.78125 -4.640625 C 0.925781 -4.617188 1.035156 -4.585938 1.109375 -4.546875 L 1.234375 -4.453125 L 1.375 -3.921875 C 1.488281 -3.421875 1.582031 -3.035156 1.65625 -2.765625 C 1.726562 -2.503906 1.789062 -2.289062 1.84375 -2.125 C 1.894531 -1.957031 1.925781 -1.859375 1.9375 -1.828125 C 1.957031 -1.804688 1.972656 -1.796875 1.984375 -1.796875 C 1.992188 -1.796875 2 -1.800781 2 -1.8125 C 2.03125 -1.84375 2.195312 -2.3125 2.5 -3.21875 C 2.8125 -4.132812 2.988281 -4.609375 3.03125 -4.640625 C 3.070312 -4.691406 3.128906 -4.71875 3.203125 -4.71875 C 3.273438 -4.71875 3.335938 -4.722656 3.390625 -4.734375 Z M 3.390625 -4.734375 "/></g></g></g><g fill="#004aad" fill-opacity="1"><g transform="translate(58.763968, 60.37162)"><g/></g></g><g fill="#004aad" fill-opacity="1"><g transform="translate(60.474178, 60.37162)"><g><path d="M 2.265625 -4.765625 C 2.273438 -4.785156 2.285156 -4.796875 2.296875 -4.796875 C 2.304688 -4.796875 2.332031 -4.789062 2.375 -4.78125 C 2.382812 -4.769531 2.398438 -4.765625 2.421875 -4.765625 C 2.441406 -4.765625 2.460938 -4.769531 2.484375 -4.78125 C 2.492188 -4.789062 2.507812 -4.796875 2.53125 -4.796875 C 2.539062 -4.796875 2.550781 -4.789062 2.5625 -4.78125 C 2.582031 -4.769531 2.617188 -4.734375 2.671875 -4.671875 C 2.765625 -4.578125 2.816406 -4.503906 2.828125 -4.453125 C 2.847656 -4.398438 2.859375 -4.359375 2.859375 -4.328125 C 2.859375 -4.273438 2.847656 -4.222656 2.828125 -4.171875 C 2.773438 -4.015625 2.492188 -3.453125 1.984375 -2.484375 C 1.960938 -2.421875 1.820312 -2.144531 1.5625 -1.65625 C 1.28125 -1.09375 1.070312 -0.703125 0.9375 -0.484375 C 0.8125 -0.273438 0.707031 -0.140625 0.625 -0.078125 C 0.550781 -0.0351562 0.503906 -0.015625 0.484375 -0.015625 C 0.460938 -0.015625 0.410156 -0.0507812 0.328125 -0.125 C 0.242188 -0.195312 0.1875 -0.25 0.15625 -0.28125 C 0.125 -0.300781 0.101562 -0.351562 0.09375 -0.4375 C 0.09375 -0.4375 0.09375 -0.441406 0.09375 -0.453125 C 0.09375 -0.515625 0.101562 -0.578125 0.125 -0.640625 C 0.15625 -0.703125 0.25 -0.894531 0.40625 -1.21875 C 0.769531 -1.914062 1.175781 -2.695312 1.625 -3.5625 C 1.769531 -3.832031 1.910156 -4.09375 2.046875 -4.34375 C 2.148438 -4.570312 2.222656 -4.710938 2.265625 -4.765625 Z M 2.265625 -4.765625 "/></g></g></g><g fill="#004aad" fill-opacity="1"><g transform="translate(63.484152, 60.37162)"><g><path d="M 0.703125 -4.140625 C 0.722656 -4.148438 0.742188 -4.15625 0.765625 -4.15625 C 0.773438 -4.15625 0.789062 -4.148438 0.8125 -4.140625 C 0.832031 -4.140625 0.898438 -4.113281 1.015625 -4.0625 C 1.253906 -3.957031 1.625 -3.707031 2.125 -3.3125 C 2.34375 -3.125 2.546875 -2.9375 2.734375 -2.75 C 2.929688 -2.570312 3.0625 -2.429688 3.125 -2.328125 C 3.195312 -2.234375 3.234375 -2.140625 3.234375 -2.046875 C 3.234375 -2.003906 3.222656 -1.945312 3.203125 -1.875 C 3.191406 -1.800781 3.109375 -1.691406 2.953125 -1.546875 C 2.660156 -1.265625 2.207031 -0.890625 1.59375 -0.421875 C 1.300781 -0.179688 1.113281 -0.0195312 1.03125 0.0625 C 0.976562 0.101562 0.9375 0.132812 0.90625 0.15625 C 0.882812 0.1875 0.863281 0.203125 0.84375 0.203125 C 0.832031 0.210938 0.820312 0.21875 0.8125 0.21875 C 0.800781 0.21875 0.789062 0.210938 0.78125 0.203125 C 0.769531 0.191406 0.765625 0.175781 0.765625 0.15625 C 0.753906 0.125 0.710938 0.078125 0.640625 0.015625 C 0.578125 -0.046875 0.535156 -0.078125 0.515625 -0.078125 C 0.492188 -0.078125 0.484375 -0.0859375 0.484375 -0.109375 C 0.484375 -0.140625 0.460938 -0.175781 0.421875 -0.21875 C 0.367188 -0.28125 0.34375 -0.34375 0.34375 -0.40625 C 0.34375 -0.445312 0.359375 -0.492188 0.390625 -0.546875 C 0.421875 -0.609375 0.53125 -0.726562 0.71875 -0.90625 C 0.90625 -1.082031 1.128906 -1.28125 1.390625 -1.5 C 1.703125 -1.757812 1.890625 -1.921875 1.953125 -1.984375 C 1.992188 -2.023438 2.015625 -2.050781 2.015625 -2.0625 C 2.023438 -2.070312 2.03125 -2.082031 2.03125 -2.09375 C 2.03125 -2.101562 2.019531 -2.125 2 -2.15625 C 1.96875 -2.195312 1.765625 -2.398438 1.390625 -2.765625 C 0.835938 -3.285156 0.554688 -3.597656 0.546875 -3.703125 C 0.546875 -3.742188 0.539062 -3.773438 0.53125 -3.796875 C 0.519531 -3.804688 0.515625 -3.816406 0.515625 -3.828125 C 0.515625 -3.847656 0.523438 -3.882812 0.546875 -3.9375 C 0.566406 -4 0.59375 -4.035156 0.625 -4.046875 C 0.65625 -4.054688 0.671875 -4.070312 0.671875 -4.09375 C 0.671875 -4.125 0.679688 -4.140625 0.703125 -4.140625 Z M 0.703125 -4.140625 "/></g></g></g></svg>